<svg xmlns="http://www.w3.org/2000/svg" viewBox="0 0 400 230" role="img" aria-label="Surface Areas and Volumes - cube, cylinder, cone and sphere with dimension markings">
  <rect width="400" height="230" fill="#ffffff"/>
  <circle cx="24" cy="204" r="46" fill="#f4f6ff"/>
  <circle cx="382" cy="20" r="46" fill="#fff7e6"/>
  <circle cx="22" cy="20" r="7" fill="#1a237e" opacity="0.85"/>
  <circle cx="382" cy="206" r="12" fill="#f9a825" opacity="0.85"/>

  <g stroke="#1a237e" stroke-width="3" fill="#eef2ff" stroke-linejoin="round">
    <rect x="56" y="112" width="62" height="62" rx="6"/>
  </g>
  <g stroke="#1a237e" stroke-width="3" fill="#dbe4ff" stroke-linejoin="round">
    <path d="M78 52 L140 72 L140 128 L78 108 Z"/>
    <path d="M56 112 L78 52"/>
    <path d="M118 112 L140 72"/>
  </g>

  <g stroke="#1a237e" stroke-width="3" fill="#fdf4e3" stroke-linejoin="round">
    <ellipse cx="192" cy="130" rx="40" ry="12"/>
    <rect x="152" y="76" width="80" height="54" fill="#fdf4e3"/>
  </g>
  <ellipse cx="192" cy="76" rx="40" ry="12" fill="#fff" stroke="#1a237e" stroke-width="3"/>
  <path d="M152 92 L152 124 M232 92 L232 124" stroke="#1a237e" stroke-width="2" opacity="0.5"/>

  <g stroke="#1a237e" stroke-width="3" fill="#eef2ff" stroke-linejoin="round">
    <path d="M298 130 L268 60 L328 60 L298 130 Z"/>
  </g>
  <g stroke="#1a237e" stroke-width="3" fill="#dbe4ff" stroke-linejoin="round">
    <path d="M252 60 L298 48 L330 68 L298 80 Z"/>
  </g>
  <ellipse cx="298" cy="130" rx="10" ry="4" fill="#fff" stroke="#1a237e" stroke-width="2.5"/>

  <g stroke="#1a237e" stroke-width="3" fill="#fff7e6">
    <circle cx="78" cy="118" r="4"/>
  </g>

  <g font-family="Georgia,serif" font-style="italic" font-weight="700" fill="#1a237e">
    <text x="20" y="104" font-size="14">a</text>
    <text x="92" y="94" font-size="14">a</text>
    <text x="364" y="72" font-size="15">V</text>
  </g>

  <g font-family="Inter,Arial,sans-serif" font-weight="600" fill="#6b7280">
    <text x="70" y="204" font-size="11">Cube</text>
    <text x="176" y="204" font-size="11">Cylinder</text>
    <text x="280" y="204" font-size="11">Cone</text>
    <text x="330" y="144" font-size="11">Sphere</text>
    <text x="330" y="164" font-size="11">V = 4/3 &#960;r</text>
    <text x="348" y="164" font-size="9">3</text>
  </g>
</svg>